<?xml version="1.0" encoding="utf-8"?>
<!-- Generator: Adobe Illustrator 17.1.0, SVG Export Plug-In . SVG Version: 6.00 Build 0)  -->
<!DOCTYPE svg PUBLIC "-//W3C//DTD SVG 1.1//EN" "http://www.w3.org/Graphics/SVG/1.1/DTD/svg11.dtd">
<svg version="1.1" id="Layer_1" xmlns="http://www.w3.org/2000/svg" xmlns:xlink="http://www.w3.org/1999/xlink" x="0px" y="0px"
	 viewBox="0 0 329 196" enable-background="new 0 0 329 196" xml:space="preserve">
<g>
	<g>
		<path fill="#D8CCC8" d="M133.2,128.8c-0.7,0-1.4-0.2-2-0.5c-2-1.1-2.8-3.7-1.6-5.7l12.6-22.8c1.1-2,3.7-2.8,5.7-1.6
			c2,1.1,2.8,3.7,1.6,5.7l-12.6,22.8C136.1,128,134.7,128.8,133.2,128.8z"/>
		<g>
			<circle fill="#0C9D58" cx="131" cy="128.7" r="12.7"/>
			<path fill="#88CDAB" d="M137.5,117.8c-0.2-0.1-0.4-0.2-0.6-0.3c-6.2-3.3-13.9-0.9-17.1,5.3c-3.3,6.2-0.9,13.9,5.3,17.1
				c0.2,0.1,0.4,0.2,0.6,0.3L137.5,117.8z"/>
		</g>
		<g>
			<circle fill="#0C9D58" cx="152.5" cy="94.8" r="13.5"/>
			<path fill="#88CDAB" d="M153.2,81.3c-0.2,0-0.5,0-0.7,0c-7.5,0-13.5,6.1-13.5,13.5c0,7.5,6.1,13.5,13.5,13.5c0.2,0,0.5,0,0.7,0
				V81.3z"/>
		</g>
		<path fill="#D8CCC8" d="M148.4,93.4c-1.4,0-2.8-0.7-3.6-2l-12.6-20.2c-1.2-2-0.6-4.6,1.3-5.8c2-1.2,4.6-0.6,5.8,1.3L151.9,87
			c1.2,2,0.6,4.6-1.3,5.8C149.9,93.2,149.1,93.4,148.4,93.4z"/>
		<path fill="#D8CCC8" d="M182.1,106.1c-0.4,0-0.8-0.1-1.1-0.2l-21.1-5.9c-2.2-0.6-3.6-3-2.9-5.2c0.6-2.2,3-3.6,5.2-2.9l21.1,5.9
			c2.2,0.6,3.6,3,2.9,5.2C185.6,104.8,183.9,106.1,182.1,106.1z"/>
		<g>
			<circle fill="#0C9D58" cx="134" cy="65.6" r="11"/>
			<path fill="#88CDAB" d="M134.6,54.7c-0.2,0-0.4,0-0.6,0c-6.1,0-11,4.9-11,11c0,6.1,4.9,11,11,11c0.2,0,0.4,0,0.6,0V54.7z"/>
		</g>
		<g>
			<circle fill="#0C9D58" cx="189" cy="104.2" r="12.7"/>
			<path fill="#88CDAB" d="M189.6,91.6c-0.2,0-0.4,0-0.7,0c-7,0-12.7,5.7-12.7,12.7c0,7,5.7,12.7,12.7,12.7c0.2,0,0.4,0,0.7,0V91.6z
				"/>
		</g>
	</g>
</g>
</svg>
