<?xml version="1.0" encoding="utf-8"?>
<!-- Generator: Adobe Illustrator 17.1.0, SVG Export Plug-In . SVG Version: 6.00 Build 0)  -->
<!DOCTYPE svg PUBLIC "-//W3C//DTD SVG 1.1//EN" "http://www.w3.org/Graphics/SVG/1.1/DTD/svg11.dtd">
<svg version="1.1" id="Layer_1" xmlns="http://www.w3.org/2000/svg" xmlns:xlink="http://www.w3.org/1999/xlink" x="0px" y="0px"
	 viewBox="0 0 329 196" enable-background="new 0 0 329 196" xml:space="preserve">
<g>
	<g>
		<defs>
			<path id="SVGID_1_" d="M210,135.5c0,3.5-2.8,6.2-6.2,6.2h-87.5c-3.5,0-6.2-2.8-6.2-6.2v-75c0-3.5,2.8-6.2,6.2-6.2h87.5
				c3.5,0,6.2,2.8,6.2,6.2V135.5z"/>
		</defs>
		<clipPath id="SVGID_2_">
			<use xlink:href="#SVGID_1_"  overflow="visible"/>
		</clipPath>
		<g clip-path="url(#SVGID_2_)">
			<rect x="110" y="66.8" fill="#FFFFFF" width="68.8" height="75"/>
			<g>
				<defs>
					<rect id="SVGID_3_" x="110" y="67" width="71" height="75"/>
				</defs>
				<clipPath id="SVGID_4_">
					<use xlink:href="#SVGID_3_"  overflow="visible"/>
				</clipPath>
				<rect x="112" y="64" opacity="0.5" clip-path="url(#SVGID_4_)" fill="#38A4DD" width="1" height="82"/>
				<rect x="116" y="64" opacity="0.5" clip-path="url(#SVGID_4_)" fill="#38A4DD" width="1" height="82"/>
				<rect x="120" y="64" opacity="0.5" clip-path="url(#SVGID_4_)" fill="#38A4DD" width="1" height="82"/>
				<rect x="124" y="64" opacity="0.5" clip-path="url(#SVGID_4_)" fill="#38A4DD" width="1" height="82"/>
				<rect x="128" y="64" opacity="0.5" clip-path="url(#SVGID_4_)" fill="#38A4DD" width="1" height="82"/>
				<rect x="132" y="64" opacity="0.5" clip-path="url(#SVGID_4_)" fill="#38A4DD" width="1" height="82"/>
				<rect x="136" y="64" opacity="0.5" clip-path="url(#SVGID_4_)" fill="#38A4DD" width="1" height="82"/>
				<rect x="140" y="64" opacity="0.5" clip-path="url(#SVGID_4_)" fill="#38A4DD" width="1" height="82"/>
				<rect x="144" y="64" opacity="0.5" clip-path="url(#SVGID_4_)" fill="#38A4DD" width="1" height="82"/>
				<rect x="148" y="64" opacity="0.5" clip-path="url(#SVGID_4_)" fill="#38A4DD" width="1" height="82"/>
				<rect x="152" y="64" opacity="0.5" clip-path="url(#SVGID_4_)" fill="#38A4DD" width="1" height="82"/>
				<rect x="156" y="64" opacity="0.5" clip-path="url(#SVGID_4_)" fill="#38A4DD" width="1" height="82"/>
				<rect x="160" y="64" opacity="0.5" clip-path="url(#SVGID_4_)" fill="#38A4DD" width="1" height="82"/>
				<rect x="164" y="64" opacity="0.5" clip-path="url(#SVGID_4_)" fill="#38A4DD" width="1" height="82"/>
				<rect x="168" y="64" opacity="0.5" clip-path="url(#SVGID_4_)" fill="#38A4DD" width="1" height="82"/>
				<rect x="172" y="64" opacity="0.5" clip-path="url(#SVGID_4_)" fill="#38A4DD" width="1" height="82"/>
				<rect x="176" y="64" opacity="0.5" clip-path="url(#SVGID_4_)" fill="#38A4DD" width="1" height="82"/>
				<rect x="107" y="134" opacity="0.5" clip-path="url(#SVGID_4_)" fill="#38A4DD" width="82" height="1"/>
				<rect x="107" y="138" opacity="0.5" clip-path="url(#SVGID_4_)" fill="#38A4DD" width="82" height="1"/>
				<rect x="107" y="130" opacity="0.5" clip-path="url(#SVGID_4_)" fill="#38A4DD" width="82" height="1"/>
				<rect x="107" y="126" opacity="0.5" clip-path="url(#SVGID_4_)" fill="#38A4DD" width="82" height="1"/>
				<rect x="107" y="122" opacity="0.5" clip-path="url(#SVGID_4_)" fill="#38A4DD" width="82" height="1"/>
				<rect x="107" y="118" opacity="0.5" clip-path="url(#SVGID_4_)" fill="#38A4DD" width="82" height="1"/>
				<rect x="107" y="114" opacity="0.5" clip-path="url(#SVGID_4_)" fill="#38A4DD" width="82" height="1"/>
				<rect x="107" y="110" opacity="0.5" clip-path="url(#SVGID_4_)" fill="#38A4DD" width="82" height="1"/>
				<rect x="107" y="106" opacity="0.5" clip-path="url(#SVGID_4_)" fill="#38A4DD" width="82" height="1"/>
				<rect x="107" y="102" opacity="0.5" clip-path="url(#SVGID_4_)" fill="#38A4DD" width="82" height="1"/>
				<rect x="107" y="98" opacity="0.5" clip-path="url(#SVGID_4_)" fill="#38A4DD" width="82" height="1"/>
				<rect x="107" y="94" opacity="0.5" clip-path="url(#SVGID_4_)" fill="#38A4DD" width="82" height="1"/>
				<rect x="107" y="90" opacity="0.5" clip-path="url(#SVGID_4_)" fill="#38A4DD" width="82" height="1"/>
				<rect x="107" y="86" opacity="0.5" clip-path="url(#SVGID_4_)" fill="#38A4DD" width="82" height="1"/>
				<rect x="107" y="82" opacity="0.5" clip-path="url(#SVGID_4_)" fill="#38A4DD" width="82" height="1"/>
				<rect x="107" y="78" opacity="0.5" clip-path="url(#SVGID_4_)" fill="#38A4DD" width="82" height="1"/>
				<rect x="107" y="74" opacity="0.5" clip-path="url(#SVGID_4_)" fill="#38A4DD" width="82" height="1"/>
				<rect x="107" y="70" opacity="0.5" clip-path="url(#SVGID_4_)" fill="#38A4DD" width="82" height="1"/>
			</g>
		</g>
		<rect x="178.8" y="66.8" clip-path="url(#SVGID_2_)" fill="#557EBF" width="31.2" height="75"/>
		<g clip-path="url(#SVGID_2_)">
			<g>
				<g>
					
						<image overflow="visible" opacity="0.2" width="467" height="103" xlink:href="7B0371CBFCBB1EAC.png"  transform="matrix(0.24 0 0 0.24 104 50.25)">
					</image>
					<rect x="110" y="54.2" fill="#A3A2A2" width="100" height="12.5"/>
				</g>
			</g>
			<circle fill="#EEEEEE" cx="118.3" cy="60.5" r="2.1"/>
			<circle fill="#EEEEEE" cx="126.7" cy="60.5" r="2.1"/>
			<rect x="110" y="66.8" fill="#263238" fill-opacity="0.2" width="100" height="0.5"/>
		</g>
		<g clip-path="url(#SVGID_2_)">
			<path fill="#FFFFFF" fill-opacity="0.2" d="M203.8,54.2h-87.5c-3.5,0-6.2,2.8-6.2,6.2V61c0-3.5,2.8-6.2,6.2-6.2h87.5
				c3.5,0,6.2,2.8,6.2,6.2v-0.5C210,57,207.2,54.2,203.8,54.2z"/>
			<path fill="#263238" fill-opacity="0.15" d="M203.8,141.8h-87.5c-3.5,0-6.2-2.8-6.2-6.2V135c0,3.5,2.8,6.2,6.2,6.2h87.5
				c3.5,0,6.2-2.8,6.2-6.2v0.5C210,139,207.2,141.8,203.8,141.8z"/>
		</g>
		<radialGradient id="SVGID_5_" cx="110.0661" cy="66.5219" r="70.8823" gradientUnits="userSpaceOnUse">
			<stop  offset="0" style="stop-color:#263238;stop-opacity:0.2"/>
			<stop  offset="1" style="stop-color:#263238;stop-opacity:0"/>
		</radialGradient>
		<polygon clip-path="url(#SVGID_2_)" fill="url(#SVGID_5_)" points="110,66.8 185,141.8 210,141.8 210,66.8 		"/>
	</g>
	<radialGradient id="SVGID_6_" cx="111.6262" cy="55.6909" r="127.7574" gradientUnits="userSpaceOnUse">
		<stop  offset="0" style="stop-color:#FFFFFF"/>
		<stop  offset="1" style="stop-color:#FFFFFF;stop-opacity:0"/>
	</radialGradient>
	<path fill="url(#SVGID_6_)" fill-opacity="0.1" d="M210,135.5c0,3.5-2.8,6.2-6.2,6.2h-87.5c-3.5,0-6.2-2.8-6.2-6.2v-75
		c0-3.5,2.8-6.2,6.2-6.2h87.5c3.5,0,6.2,2.8,6.2,6.2V135.5z"/>
	<rect x="110" y="48" fill="none" width="100" height="100"/>
</g>
</svg>
