<?xml version="1.0" encoding="utf-8"?>
<!-- Generator: Adobe Illustrator 17.1.0, SVG Export Plug-In . SVG Version: 6.00 Build 0)  -->
<!DOCTYPE svg PUBLIC "-//W3C//DTD SVG 1.1//EN" "http://www.w3.org/Graphics/SVG/1.1/DTD/svg11.dtd">
<svg version="1.1" id="Layer_1" xmlns="http://www.w3.org/2000/svg" xmlns:xlink="http://www.w3.org/1999/xlink" x="0px" y="0px"
	 viewBox="0 0 329 196" enable-background="new 0 0 329 196" xml:space="preserve">
<g>
	<path fill="#B3B3B3" d="M229.1,51.5c0-1.9-1.5-3.5-3.4-3.5H94.3c-1.9,0-3.5,1.6-3.5,3.5v87.2c0,1.9,1.6,3.5,3.5,3.5h131.3
		c1.9,0,3.4-1.6,3.4-3.5V51.5z"/>
	<rect x="96.8" y="53.9" fill="#F2F2F2" width="126.5" height="82.4"/>
	<circle fill="#999999" cx="218.8" cy="146.5" r="1.5"/>
	<path fill="#B3B3B3" d="M171.8,142.1v0.8c0,0.4-0.3,0.7-0.7,0.7H149c-0.4,0-0.7-0.3-0.7-0.7v-0.8h-75v4.4c0,0,0,1.5,2.1,1.5h169.3
		c2.1,0,2.1-2.1,2.1-2.1v-3.8H171.8z"/>
</g>
<g>
	<rect x="133.8" y="71.3" fill="none" width="50" height="50"/>
	<g>
		<g>
			<defs>
				<circle id="SVGID_1_" cx="158.8" cy="96.3" r="25"/>
			</defs>
			<clipPath id="SVGID_2_">
				<use xlink:href="#SVGID_1_"  overflow="visible"/>
			</clipPath>
			<g clip-path="url(#SVGID_2_)">
				<g>
					<circle fill="#38A4DD" cx="158.8" cy="96.3" r="25"/>
					<radialGradient id="SVGID_3_" cx="147.8657" cy="91.6148" r="35.9141" gradientUnits="userSpaceOnUse">
						<stop  offset="0.33" style="stop-color:#263238;stop-opacity:0.15"/>
						<stop  offset="1" style="stop-color:#263238;stop-opacity:0"/>
					</radialGradient>
					<polygon fill="url(#SVGID_3_)" points="163.5,82.3 158.8,102.6 163.5,107.3 147.8,108.8 160.3,121.3 183.8,121.3 183.8,102.6 
											"/>
					<g>
						<g>
							<g>
								<g>
									
										<image overflow="visible" opacity="0.2" width="142" height="161" xlink:href="240935D03C8EF919.png"  transform="matrix(0.24 0 0 0.24 143.8371 78.2708)">
									</image>
									<path fill="#F5F5F5" d="M169.7,91.6h-6.2v-9.4h-9.4v9.4h-6.3l10.9,10.9L169.7,91.6z M147.8,105.7v3.1h21.9v-3.1H147.8z"/>
								</g>
							</g>
							<path fill="#FFFFFF" fill-opacity="0.4" d="M163.5,82.3h-9.4v0.3h9.4V82.3z M163.5,91.9h5.7l0.5-0.3h-6.3L163.5,91.9z
								 M147.8,106h21.9v-0.3h-21.9V106z M154.1,91.9l0-0.3h-6.3l0.5,0.3H154.1z"/>
							<path fill="#212121" fill-opacity="0.1" d="M169.7,91.9v-0.3l-10.9,10.9l-10.9-10.9v0.3l10.9,10.9L169.7,91.9z M148.1,109.1
								h21.6v-0.3h-21.9L148.1,109.1z"/>
							<path fill="#212121" fill-opacity="5.000000e-02" d="M169.7,91.6l-0.5,0.3l-10.4,10.4l-10.4-10.4l-0.5-0.3l10.9,10.9
								L169.7,91.6z M148.1,108.8h21.6v-0.3h-21.9L148.1,108.8z"/>
						</g>
					</g>
					<path fill="#FFFFFF" fill-opacity="0.2" d="M158.8,71.6c13.8,0,24.9,11.1,25,24.9c0,0,0-0.1,0-0.1c0-13.8-11.2-25-25-25
						c-13.8,0-25,11.2-25,25c0,0,0,0.1,0,0.1C133.8,82.7,145,71.6,158.8,71.6z"/>
					<path fill="#263238" fill-opacity="0.2" d="M183.8,96.2c-0.1,13.7-11.2,24.9-25,24.9c-13.8,0-24.9-11.1-25-24.9
						c0,0,0,0.1,0,0.1c0,13.8,11.2,25,25,25c13.8,0,25-11.2,25-25C183.8,96.3,183.8,96.2,183.8,96.2z"/>
				</g>
			</g>
		</g>
		<radialGradient id="SVGID_4_" cx="140.9718" cy="78.7182" r="49.9827" gradientUnits="userSpaceOnUse">
			<stop  offset="0" style="stop-color:#FFFFFF"/>
			<stop  offset="1" style="stop-color:#FFFFFF;stop-opacity:0"/>
		</radialGradient>
		<circle fill="url(#SVGID_4_)" fill-opacity="0.1" cx="158.8" cy="96.3" r="25"/>
	</g>
</g>
</svg>
